HIERARCHY
ROOT Hips
{
 OFFSET 0.000000 0.000000 0.000000
 CHANNELS 6 Xposition Yposition Zposition Yrotation Xrotation Zrotation
 JOINT Chest
 {
  OFFSET 0.000000 9.585900 0.002600
  CHANNELS 3 Yrotation Xrotation Zrotation
  JOINT Chest2
  {
   OFFSET 0.000000 9.601200 -0.005300
   CHANNELS 3 Yrotation Xrotation Zrotation
   JOINT Chest3
   {
    OFFSET 0.000000 9.561800 0.000000
    CHANNELS 3 Yrotation Xrotation Zrotation
    JOINT Chest4
    {
     OFFSET 0.000000 9.552100 0.000000
     CHANNELS 3 Yrotation Xrotation Zrotation
     JOINT Neck
     {
      OFFSET 0.000000 14.453000 0.000000
      CHANNELS 3 Yrotation Xrotation Zrotation
      JOINT Head
      {
       OFFSET 0.000000 8.936500 -0.011300
       CHANNELS 3 Yrotation Xrotation Zrotation
       End Site
       {
        OFFSET 0.000000 17.073600 -0.006000
       }
      }
     }
     JOINT RightCollar
     {
      OFFSET -2.921100 9.558500 0.000000
      CHANNELS 3 Yrotation Xrotation Zrotation
      JOINT RightShoulder
      {
       OFFSET -13.519700 0.000000 0.000000
       CHANNELS 3 Yrotation Xrotation Zrotation
       JOINT RightElbow
       {
        OFFSET 0.000000 -29.696600 0.000000
        CHANNELS 3 Yrotation Xrotation Zrotation
        JOINT RightWrist
        {
         OFFSET 0.000000 -24.004700 0.000000
         CHANNELS 3 Yrotation Xrotation Zrotation
         End Site
         {
          OFFSET 0.000000 -17.728500 0.000000
         }
        }
       }
      }
     }
     JOINT LeftCollar
     {
      OFFSET 2.921100 9.558500 0.000000
      CHANNELS 3 Yrotation Xrotation Zrotation
      JOINT LeftShoulder
      {
       OFFSET 13.519700 0.000000 0.000000
       CHANNELS 3 Yrotation Xrotation Zrotation
       JOINT LeftElbow
       {
        OFFSET 0.000000 -29.696600 0.000000
        CHANNELS 3 Yrotation Xrotation Zrotation
        JOINT LeftWrist
        {
         OFFSET 0.000000 -24.004700 0.000000
         CHANNELS 3 Yrotation Xrotation Zrotation
         End Site
         {
          OFFSET 0.000000 -17.728500 0.000000
         }
        }
       }
      }
     }
    }
   }
  }
 }
 JOINT RightHip
 {
  OFFSET -7.771700 -0.012900 -0.001300
  CHANNELS 3 Yrotation Xrotation Zrotation
  JOINT RightKnee
  {
   OFFSET 0.000000 -40.869800 0.001200
   CHANNELS 3 Yrotation Xrotation Zrotation
   JOINT RightAnkle
   {
    OFFSET 0.000000 -39.717900 0.002100
    CHANNELS 3 Yrotation Xrotation Zrotation
    JOINT RightToe
    {
     OFFSET 0.000000 -4.965400 11.033500
     CHANNELS 3 Yrotation Xrotation Zrotation
     End Site
     {
      OFFSET 0.000000 -1.423100 5.872300
     }
    }
   }
  }
 }
 JOINT LeftHip
 {
  OFFSET 7.771700 -0.012900 -0.001300
  CHANNELS 3 Yrotation Xrotation Zrotation
  JOINT LeftKnee
  {
   OFFSET 0.000000 -40.869800 0.001200
   CHANNELS 3 Yrotation Xrotation Zrotation
   JOINT LeftAnkle
   {
    OFFSET 0.000000 -39.717900 0.002100
    CHANNELS 3 Yrotation Xrotation Zrotation
    JOINT LeftToe
    {
     OFFSET 0.000000 -4.965400 11.033500
     CHANNELS 3 Yrotation Xrotation Zrotation
     End Site
     {
      OFFSET 0.000000 -1.423100 5.872300
     }
    }
   }
  }
 }
}
MOTION
Frames: 16
Frame Time: 0.008333
0.000000 85.388000 0.000000 0.000000 -5.767877 0.000000 0.000000 11.653817 0.000000 0.000000 -5.885947 0.000000 0.000000 -0.000000 0.000000 0.000000 -0.000000 0.000000 0.000000 12.528835 0.000000 0.000000 0.711642 0.000000 0.000000 -0.000000 0.000000 0.000000 0.000000 -90.000000 0.000000 -2.309062 0.000000 0.000000 2.309062 0.000000 0.000000 -0.000000 0.000000 0.000000 -0.000000 90.000000 0.000000 -2.309062 0.000000 0.000000 2.309062 0.000000 0.000000 8.520406 0.000000 0.000000 1.905762 0.000000 -0.000000 -4.658285 0.000000 0.000000 -0.000000 0.000000 0.000000 8.520406 0.000000 0.000000 1.905762 0.000000 -0.000000 -4.658285 0.000000 0.000000 -0.000000 0.000000
-27.867813 46.660821 24.741336 -172.116705 -33.453676 -4.538861 -2.367463 19.017562 0.498793 -0.216314 2.282287 0.198329 -0.375658 3.757844 0.317573 -1.400993 16.590152 1.276879 -2.885936 21.902912 1.484793 -5.591907 5.032554 3.483496 0.166600 2.004900 -1.711849 -3.284489 -6.856566 -17.178391 -155.286895 -78.503119 -168.583674 3.122431 2.473438 -26.394809 -0.517961 0.742853 1.398157 -3.455603 -4.116986 14.149130 94.988303 -78.114094 -129.979007 -4.114064 10.500443 5.816329 13.545928 -53.345752 -11.168116 -169.582461 78.823014 -162.918127 -11.015226 -22.106053 -3.593241 0.169547 -0.382054 0.481411 -2.827732 -54.704530 4.150588 -95.960445 81.255490 -101.980646 3.194253 -5.163598 5.932408 0.378014 0.618113 0.366398
-27.880820 46.655267 24.748741 -171.983457 -33.416244 -4.544947 -2.413212 18.994745 0.477263 -0.215976 2.284184 0.198455 -0.351954 3.764261 0.322534 -1.421690 16.592371 1.274281 -2.926224 21.930665 1.536173 -5.711087 5.057454 3.577940 0.194431 1.985845 -1.703045 -2.917798 -6.874128 -17.143746 -151.136175 -78.667413 -172.268725 3.029928 2.248985 -26.242212 -0.510011 0.726403 1.390653 -3.494357 -4.124352 14.174866 94.848904 -78.056607 -129.885347 -4.066463 10.252899 5.680523 13.571308 -53.362739 -11.285559 -169.012862 78.759234 -162.375681 -10.997694 -22.101169 -3.611791 0.149644 -0.386543 0.452098 -2.831208 -54.735110 4.116657 -95.543022 81.214683 -101.637019 3.092430 -5.094519 5.948743 0.445380 0.606803 0.360966
-27.893885 46.652322 24.751847 -171.908436 -33.414191 -4.527442 -2.451169 18.999764 0.438462 -0.215639 2.285118 0.198518 -0.307659 3.774347 0.329861 -1.413985 16.599265 1.276142 -3.000863 21.941709 1.584076 -5.858636 5.084982 3.684152 0.225101 1.965426 -1.690880 -2.546044 -6.877953 -17.107321 -146.989579 -78.789270 -175.978299 2.927941 2.035028 -26.043135 -0.561893 0.703519 1.398449 -3.478283 -4.131096 14.181771 94.706347 -77.995255 -129.793555 -4.018394 9.982956 5.519141 13.608322 -53.350566 -11.374408 -168.472518 78.698870 -161.864680 -10.971143 -22.103601 -3.632707 0.107567 -0.383931 0.412715 -2.803779 -54.734748 4.047094 -95.306892 81.207371 -101.441177 3.057370 -5.045670 5.945144 0.457291 0.591610 0.379008
-27.907509 46.649354 24.754521 -171.803183 -33.413182 -4.529083 -2.446871 19.016229 0.436629 -0.276750 2.277305 0.186201 -0.309371 3.776734 0.329571 -1.358846 16.617264 1.283683 -3.093736 21.948211 1.633842 -6.039757 5.105469 3.798916 0.253584 1.943754 -1.677964 -2.169773 -6.872188 -17.066532 -142.891541 -78.861836 -179.662147 2.826952 1.846987 -25.788152 -0.548255 0.686541 1.391023 -3.560246 -4.146617 14.205742 94.607473 -77.944503 -129.719225 -3.958386 9.685715 5.328213 13.616314 -53.331991 -11.468672 -168.039352 78.640834 -161.463386 -10.926487 -22.104920 -3.615043 0.066407 -0.391397 0.356880 -2.792447 -54.730826 3.979828 -95.058743 81.198774 -101.229574 2.990669 -5.005799 5.959744 0.491622 0.592004 0.404710
-27.923833 46.645955 24.757466 -171.651572 -33.407996 -4.545500 -2.486876 19.033527 0.421721 -0.301673 2.274931 0.181644 -0.348235 3.771820 0.323717 -1.299785 16.635931 1.291868 -3.193276 21.944440 1.677271 -6.253938 5.132930 3.930647 0.279482 1.923730 -1.664924 -1.798523 -6.862067 -17.021764 -138.866013 -78.881462 176.712019 2.743341 1.696803 -25.471896 -0.537376 0.672900 1.383622 -3.641684 -4.167188 14.229811 94.570361 -77.927010 -129.707975 -3.870799 9.352081 5.111749 13.682004 -53.302790 -11.621565 -167.626754 78.581306 -161.036475 -10.955787 -22.094315 -3.626819 0.091296 -0.414202 0.364771 -2.791916 -54.726886 3.892947 -94.754643 81.189566 -100.966467 2.909966 -4.969226 5.986821 0.520299 0.601643 0.399534
-27.933777 46.644104 24.757741 -171.586650 -33.421771 -4.559670 -2.502404 19.057442 0.420839 -0.190110 2.296807 0.204446 -0.410633 3.762190 0.315363 -1.295463 16.643289 1.293276 -3.285390 21.923644 1.705677 -6.501582 5.175941 4.088732 0.306893 1.907015 -1.653217 -1.445289 -6.853074 -16.974741 -134.944434 -78.850253 173.186842 2.687566 1.594400 -25.100828 -0.552228 0.658959 1.380351 -3.616059 -4.189975 14.241177 94.485748 -77.861051 -129.725325 -3.836016 9.019014 4.863638 13.675371 -53.280545 -11.650123 -167.350086 78.544280 -160.781555 -10.944103 -22.073740 -3.642470 0.071635 -0.434124 0.345065 -2.780345 -54.707156 3.865766 -94.602564 81.169388 -100.823434 2.850653 -4.965514 5.953786 0.571057 0.617623 0.423597
-27.943629 46.641487 24.759032 -171.534799 -33.428355 -4.571022 -2.508118 19.073940 0.422868 -0.126198 2.312304 0.217366 -0.365374 3.776861 0.321999 -1.399760 16.617952 1.287325 -3.390793 21.963435 1.772790 -6.719258 5.156267 4.187465 0.380134 1.908304 -1.653083 -1.115513 -6.849599 -16.926432 -131.172469 -78.775451 169.815661 2.659475 1.547131 -24.688831 -0.523147 0.661593 1.365931 -3.612561 -4.203132 14.252620 94.529226 -77.803244 -129.836196 -3.785761 8.676860 4.589987 13.673854 -53.267283 -11.674966 -167.181293 78.519377 -160.634131 -10.944291 -22.051221 -3.629892 0.056003 -0.448706 0.301601 -2.763103 -54.696197 3.844468 -94.461956 81.148786 -100.690009 2.786579 -4.961567 5.929179 0.606015 0.633265 0.438735
-27.958160 46.634670 24.766790 -171.459026 -33.390823 -4.565558 -2.435967 19.069063 0.453714 -0.190865 2.302786 0.204183 -0.341437 3.785766 0.326858 -1.390595 16.626617 1.292144 -3.547639 21.954687 1.836835 -6.952316 5.143859 4.302597 0.384250 1.883423 -1.643159 -0.810463 -6.852892 -16.878964 -127.571397 -78.670223 166.622563 2.651727 1.545172 -24.248861 -0.598232 0.628106 1.373221 -3.617233 -4.207346 14.259800 94.600890 -77.684427 -129.942034 -3.762284 8.370204 4.318094 13.745422 -53.288040 -11.798837 -167.117918 78.498086 -160.558450 -10.994019 -22.030718 -3.608620 0.099233 -0.458956 0.266677 -2.727440 -54.730477 3.776865 -94.215510 81.158538 -100.482543 2.752673 -4.929753 5.960031 0.589228 0.636446 0.427093
-27.970580 46.629044 24.773226 -171.391903 -33.363049 -4.570429 -2.400802 19.069651 0.472218 -0.209053 2.300388 0.201763 -0.340283 3.789740 0.328013 -1.361156 16.643185 1.299764 -3.691125 21.929812 1.889181 -7.189310 5.126359 4.422903 0.388578 1.853613 -1.632556 -0.529213 -6.861511 -16.837274 -124.124641 -78.540659 163.592446 2.650343 1.572746 -23.795054 -0.619917 0.600426 1.367672 -3.625448 -4.205097 14.269108 94.711176 -77.601478 -130.130893 -3.710428 8.032287 4.044561 13.761124 -53.303773 -11.876557 -167.136899 78.488425 -160.581352 -10.996179 -22.007246 -3.614021 0.120348 -0.468087 0.242998 -2.701415 -54.756808 3.727214 -94.024849 81.164313 -100.318447 2.722078 -4.904535 5.976037 0.589219 0.639058 0.421749
-27.980889 46.624377 24.779011 -171.325851 -33.340511 -4.586519 -2.383787 19.072546 0.491124 -0.208535 2.303271 0.202531 -0.339335 3.794294 0.329247 -1.355462 16.651987 1.304926 -3.809180 21.906733 1.933467 -7.415950 5.095053 4.536230 0.362247 1.820903 -1.622692 -0.212346 -6.869319 -16.809619 -120.815217 -78.387908 160.709028 2.644270 1.618644 -23.349288 -0.617934 0.578460 1.363186 -3.632912 -4.197510 14.271778 94.830962 -77.530882 -130.328090 -3.644132 7.686840 3.767102 13.758543 -53.321529 -11.935932 -167.261725 78.480807 -160.722318 -10.943367 -21.956691 -3.607072 0.098140 -0.497115 0.204249 -2.688484 -54.778820 3.694872 -93.864274 81.173114 -100.183898 2.701914 -4.880330 5.997581 0.578283 0.638556 0.411677
-27.987643 46.620257 24.785037 -171.329128 -33.320663 -4.581366 -2.309243 19.073516 0.525136 -0.207815 2.306502 0.203338 -0.338022 3.799396 0.330623 -1.347926 16.661819 1.310751 -3.920760 21.876704 1.975956 -7.630692 5.050574 4.645062 0.398944 1.797284 -1.615982 0.029389 -6.894435 -16.785126 -117.682830 -78.221884 158.006170 2.631519 1.669286 -22.944212 -0.632967 0.551697 1.364496 -3.640571 -4.186674 14.269575 94.930036 -77.456793 -130.483150 -3.579937 7.354727 3.487807 13.783390 -53.340315 -11.958410 -167.715774 78.514323 -161.187369 -10.963330 -21.933866 -3.591262 0.099788 -0.487124 0.163625 -2.662404 -54.800725 3.692125 -93.772258 81.179724 -100.108083 2.692213 -4.865969 6.006614 0.553294 0.636440 0.393867
-27.989119 46.618287 24.789052 -171.339381 -33.313809 -4.599616 -2.226240 19.087408 0.583676 -0.206595 2.309754 0.204390 -0.367699 3.789545 0.326989 -1.304413 16.686987 1.321859 -4.026299 21.840679 2.017829 -7.834575 4.994762 4.751577 0.424081 1.770923 -1.609186 0.272633 -6.923593 -16.764506 -114.814761 -78.054910 155.560431 2.612347 1.712032 -22.611198 -0.650011 0.527155 1.367958 -3.658050 -4.182136 14.264462 94.982247 -77.383229 -130.579271 -3.519146 7.040950 3.221893 13.762900 -53.352215 -11.927363 -168.070209 78.541528 -161.548921 -10.944825 -21.910680 -3.593345 0.109317 -0.482299 0.133800 -2.666372 -54.808837 3.729839 -93.730474 81.174825 -100.064818 2.697715 -4.872307 5.969801 0.554188 0.640564 0.375272
-27.987058 46.618265 24.791432 -171.366521 -33.318352 -4.625052 -2.132479 19.113864 0.654593 -0.204992 2.312855 0.205710 -0.390987 3.777693 0.323425 -1.263772 16.713372 1.335730 -4.126260 21.799489 2.059205 -8.028723 4.929151 4.856192 0.392099 1.733555 -1.604539 0.567565 -6.947022 -16.745042 -112.271802 -77.889972 153.425424 2.592086 1.744848 -22.372010 -0.665547 0.502917 1.372035 -3.658903 -4.165171 14.249933 95.123860 -77.353037 -130.772677 -3.429185 6.728425 2.966546 13.735535 -53.357774 -11.858705 -168.188231 78.548157 -161.675327 -10.888923 -21.901969 -3.592320 0.077792 -0.477913 0.111443 -2.647849 -54.809326 3.784749 -93.675921 81.180464 -100.015037 2.722598 -4.825432 6.018957 0.501413 0.601997 0.325482
-27.985014 46.618399 24.794799 -171.332639 -33.311460 -4.679080 -2.100182 19.134885 0.717520 -0.203345 2.315523 0.207040 -0.377729 3.781154 0.326553 -1.291989 16.702499 1.337280 -4.191852 21.774943 2.097905 -8.213883 4.856551 4.959260 0.395302 1.716156 -1.602579 0.859497 -6.966889 -16.723974 -110.075511 -77.725361 151.614754 2.574238 1.768442 -22.231386 -0.659803 0.494312 1.374372 -3.636075 -4.130983 14.229539 95.319374 -77.327007 -131.025629 -3.347104 6.435008 2.716203 13.681008 -53.363265 -11.786108 -168.162297 78.552034 -161.649880 -10.930837 -21.891066 -3.578969 0.140950 -0.480357 0.120510 -2.600659 -54.819411 3.799751 -93.643021 81.160008 -99.951617 2.668815 -4.810509 6.033138 0.521196 0.605675 0.340678
-27.986615 46.617166 24.801191 -171.305895 -33.284032 -4.704869 -2.076761 19.133936 0.753280 -0.210099 2.311661 0.206583 -0.366938 3.793126 0.329761 -1.307028 16.690292 1.339863 -4.255398 21.745067 2.137038 -8.391709 4.782026 5.059970 0.494887 1.704510 -1.601573 1.058254 -6.982423 -16.695506 -108.222483 -77.567551 150.116759 2.556413 1.778771 -22.175303 -0.646445 0.480591 1.381273 -3.637888 -4.100457 14.209035 95.433829 -77.274898 -131.182237 -3.299735 6.167701 2.473417 13.652135 -53.387388 -11.777077 -168.340583 78.564972 -161.833960 -10.949608 -21.881921 -3.580320 0.166274 -0.469376 0.120016 -2.575637 -54.849899 3.795709 -93.573078 81.161754 -99.881375 2.671106 -4.794572 6.054312 0.494959 0.605244 0.340654
